<svg width="256" height="256" viewBox="0 0 256 256" fill="none" xmlns="http://www.w3.org/2000/svg">
<path d="M196 0H60C26.8629 0 0 26.8629 0 60V196C0 229.137 26.8629 256 60 256H196C229.137 256 256 229.137 256 196V60C256 26.8629 229.137 0 196 0Z" fill="white"/>
<path d="M41.6367 206.011H73.4547V128.738L28 94.647V192.375C28 199.909 34.1023 206.011 41.6367 206.011V206.011Z" fill="#4285F4"/>
<path d="M182.545 206.011H214.364C221.898 206.011 228 199.908 228 192.374V94.647L182.545 128.738V206.011Z" fill="#34A853"/>
<path d="M182.545 69.6471V128.738L228 94.6471V76.4655C228 59.6131 208.762 49.9881 195.273 60.1018L182.545 69.6471Z" fill="#FBBC04"/>
<path fill-rule="evenodd" clip-rule="evenodd" d="M73.4546 128.738V69.647L128 110.556L182.545 69.647V128.738L128 169.647L73.4546 128.738Z" fill="#EA4335"/>
<path d="M28 76.4655V94.6471L73.4547 128.738V69.6471L60.7273 60.1018C47.2383 49.9881 28 59.6131 28 76.4647V76.4655Z" fill="#C5221F"/>
</svg>
