<svg width="256" height="256" viewBox="0 0 256 256" fill="none" xmlns="http://www.w3.org/2000/svg">
<path d="M196 0H60C26.8629 0 0 26.8629 0 60V196C0 229.137 26.8629 256 60 256H196C229.137 256 256 229.137 256 196V60C256 26.8629 229.137 0 196 0Z" fill="#F0EFEF"/>
<path d="M64.5695 116.057C58.8765 118.735 43.8086 130.79 40.9065 134.362C37.8926 137.934 36.9999 132.353 40.125 123.089C42.58 115.611 48.8314 105.453 59.3231 96.7474C65.4616 91.7246 78.9677 84.4698 87.227 80.2279C88.9016 79.3347 110.555 70.1822 129.865 65.606C131.54 65.1594 127.856 68.3964 127.298 70.1823C124.396 78.665 66.4661 115.052 66.4661 115.052L64.5695 116.057ZM146.161 218.41C147.165 224.437 146.273 224.883 140.022 225.665C133.772 226.446 129.195 224.102 127.521 222.54C125.847 220.976 125.512 217.517 127.186 214.392C128.191 212.382 129.196 211.713 129.754 209.257C130.312 206.913 130.759 206.355 131.205 205.462C131.651 204.68 131.763 203.899 131.874 198.43C131.986 192.961 131.874 182.692 132.433 178.339C132.991 173.875 152.301 180.348 152.301 180.348C152.301 180.348 147.724 191.733 146.497 194.524C145.269 197.314 145.381 202.672 145.381 203.788C145.381 204.904 144.935 207.136 144.599 207.248C144.264 207.359 145.715 210.261 145.045 211.936C144.599 213.499 146.05 217.517 146.161 218.41ZM153.528 47.7473C152.858 43.5059 153.528 35.1338 154.421 33.7951C157.212 29.9997 171.945 29.5537 175.07 34.0181C176.41 36.027 176.298 40.715 176.075 43.7289C175.852 46.7423 175.07 53.2161 174.959 55.3374C174.847 56.9002 158.663 59.3552 155.091 55.1138C154.086 53.9981 153.528 47.7473 153.528 47.7473ZM186.343 207.583C193.152 212.494 198.398 213.387 201.858 215.173C205.318 216.959 204.425 220.419 198.621 221.423C193.933 222.316 186.566 220.53 181.655 220.53C176.744 220.53 165.806 221.089 162.903 219.08C159.555 216.736 161.006 212.382 161.006 212.382C161.899 209.927 164.131 204.457 163.461 199.993C162.792 195.529 161.898 193.073 160.224 188.943C158.55 184.813 157.323 174.656 158.886 174.098C160.449 173.54 160.001 174.098 162.011 174.544C164.02 174.99 166.252 175.66 170.605 175.66C174.959 175.66 179.758 174.99 181.432 174.656C183.107 174.321 184.446 173.986 183.887 177.446C183.33 180.906 181.655 187.38 181.544 192.403C181.432 197.426 181.432 203.23 181.767 204.234C182.102 205.239 184.558 206.355 186.343 207.583Z" fill="#010101"/>
<path d="M162.457 58.9092C150.18 69.5132 126.405 72.4148 91.1347 86.0322C82.0935 89.4921 57.9844 99.8726 52.1802 110.7C71.713 99.4265 78.9683 114.941 80.5307 130.902C81.9812 145.859 89.46 153.673 108.658 153.225C128.415 152.779 134.442 164.275 139.911 177.782C150.514 126.102 167.48 116.057 178.418 107.24C201.635 88.3759 173.061 55.1139 162.457 58.9092Z" fill="#8AC640"/>
<path d="M162.458 58.9092C132.991 69.1778 103.859 71.7451 69.5926 92.8409C61.4446 97.8637 44.2555 109.248 40.9067 131.014C53.4073 117.173 82.3162 99.7613 117.699 88.7113C135.558 83.13 148.617 79.4471 164.467 73.308C163.351 66.1639 163.351 63.3736 162.458 58.9092Z" fill="#8AC640"/>
<path d="M200.072 120.075C200.072 120.075 197.952 127.33 193.71 129.675C193.71 129.675 190.585 130.791 184.335 127.331C182.549 126.326 181.21 122.866 181.321 121.75C181.433 119.071 183.107 117.843 183.107 117.843C183.107 117.843 184.893 114.829 187.013 114.941C189.135 115.052 192.706 115.387 193.823 114.383C194.826 113.266 200.296 116.391 200.072 120.075ZM154.533 49.8679C154.533 49.8679 154.087 55.5609 153.305 59.1321C153.193 59.8023 149.845 60.1366 147.389 61.1416C152.077 74.5354 180.316 74.4236 184 67.8385C182.214 66.611 178.642 64.7134 176.968 64.0437C175.294 63.3735 175.405 63.4853 175.294 60.3602C175.182 57.2345 174.959 51.4308 174.735 49.8679C174.512 48.3051 157.211 48.3051 154.533 49.8679Z" fill="#010101"/>
<path d="M155.649 49.8681C155.649 49.8681 155.649 53.105 155.314 56.2302C155.203 57.6812 155.091 58.5739 154.868 59.6901C154.756 60.3603 158.663 63.0383 159.779 68.9544C165.137 80.8971 177.527 74.9816 182.661 69.2892C180.875 68.0611 177.973 66.3871 174.625 65.0478C172.95 64.3776 173.731 62.9271 173.62 59.8019C173.508 56.6768 173.062 52.1 172.839 50.4259C172.615 48.7518 158.328 48.3052 155.649 49.8681Z" fill="#F0EFEF"/>
<path d="M154.532 49.8679C154.532 49.8679 154.421 51.8774 154.086 54.2211C155.537 55.6716 157.435 57.6811 158.886 58.9091C159.891 59.8023 162.346 59.6905 164.579 59.6905C166.588 59.6905 168.373 59.9136 169.155 59.4675C170.941 58.5743 173.508 56.3424 174.959 54.6677C174.848 52.6588 174.736 50.7612 174.625 49.8679C174.512 48.3051 157.211 48.3051 154.532 49.8679Z" fill="#010101"/>
<path d="M164.69 58.3508C163.35 58.3508 161.787 58.2395 160.56 58.0159C160.002 57.9047 159.444 57.5699 158.997 57.3463C158.216 56.7879 157.434 56.1188 156.542 55.4486C154.756 54.1094 154.644 53.3279 154.644 52.9937C155.426 45.9614 154.421 40.0459 154.421 40.0459C154.421 40.0459 153.639 37.032 157.881 36.2506C162.122 35.4692 164.69 35.3579 164.69 35.3579C164.69 35.3579 167.369 35.3579 171.498 36.2506C175.74 37.032 174.958 40.0459 174.958 40.0459C174.958 40.0459 173.954 45.9614 174.735 52.9937C174.735 53.3279 174.624 54.1094 172.838 55.4486C171.275 56.5649 170.047 57.7924 168.82 58.0159C167.592 58.2395 166.029 58.3508 164.69 58.3508Z" fill="#010101"/>
<path d="M164.69 32.4556C157.323 32.4556 155.872 34.4645 153.751 36.697C153.305 37.2548 153.639 40.6035 154.421 47.747H155.426C155.426 47.747 154.756 45.7376 154.867 43.3939C154.979 41.0501 155.426 41.1619 155.09 40.6035C154.644 39.9333 153.751 38.8171 155.761 37.7014C157.769 36.5852 160.895 38.5941 164.69 38.7059C168.485 38.5941 171.722 36.5852 173.731 37.7014C175.739 38.8171 174.847 39.9333 174.401 40.6035C173.954 41.2732 174.512 41.0496 174.624 43.3939C174.735 45.7376 174.065 47.747 174.065 47.747H175.07C175.739 40.6035 176.186 37.4784 175.851 36.92C173.954 34.4645 172.056 32.5668 164.69 32.4556ZM200.072 120.41C200.072 120.41 197.951 127.218 193.822 129.562C192.929 129.116 193.04 128.446 192.259 127.441C192.035 127.107 191.254 126.883 190.92 126.549C190.585 126.214 190.697 125.656 190.138 125.209C189.692 124.763 189.357 125.098 188.91 124.763C188.464 124.317 188.352 123.758 188.018 123.424C187.794 123.201 186.901 123.089 186.678 122.866C186.12 122.307 181.209 121.303 181.432 120.187C181.879 118.512 182.772 117.285 182.772 117.285C182.772 117.285 184.892 114.159 187.013 114.271C189.133 114.382 191.143 114.829 192.259 113.825C193.487 112.708 200.407 116.838 200.072 120.41Z" fill="#010101"/>
<path d="M185.562 71.0754C185.562 71.0754 192.594 69.4008 197.394 73.9775C202.194 78.6655 201.858 84.4692 200.408 88.041C201.635 89.492 203.868 93.5098 202.194 98.3096C209.56 104.56 206.323 114.159 199.738 120.522C199.738 120.522 198.175 114.717 191.925 114.383C192.148 112.151 186.121 110.364 188.911 104.56C184.67 103.555 184.781 100.653 184.112 97.0821C183.553 93.5098 185.562 71.0754 185.562 71.0754Z" fill="#010101"/>
<path d="M182.995 74.2005C182.995 74.2005 191.143 70.0709 195.943 74.7589C200.742 79.4469 199.402 84.581 197.951 88.1527C199.179 89.6032 202.081 93.7339 200.295 98.6444C199.96 99.7606 197.505 99.7606 195.718 102.663C200.183 100.095 202.974 100.765 203.978 104.001C205.541 109.024 202.081 115.052 199.067 118.4C199.067 118.289 198.955 118.177 198.955 118.065C198.509 119.74 197.951 122.977 194.603 126.548C192.928 128.334 191.589 128.111 189.691 127.665C187.459 127.106 186.678 126.101 183.553 124.428C181.767 123.423 182.771 122.195 182.771 121.191C182.771 120.968 182.994 120.632 183.33 120.186C183.553 119.628 184.222 118.736 185.227 117.731C185.227 117.731 186.678 115.722 188.799 115.833C190.92 115.945 193.152 115.499 193.71 114.94C193.71 111.034 189.246 110.922 190.808 104.225C190.92 103.89 191.478 103.332 193.263 103.109C190.584 102.55 189.357 102.439 187.459 100.653C186.12 99.4258 185.116 97.863 184.78 95.8541C184.111 92.3941 182.995 74.2005 182.995 74.2005Z" fill="#F0EFEF"/>
<path d="M159.444 67.1691C158.774 66.2759 155.314 61.8115 148.729 60.0256C146.831 59.4672 145.603 61.0301 143.706 62.1463C143.148 61.8115 140.692 60.6953 139.353 61.4761C138.014 62.257 137.121 63.039 135.781 63.5968C135.111 63.262 133.326 63.262 131.875 63.8199C130.424 64.2665 128.191 65.2709 126.071 68.173C124.731 72.9728 149.733 69.4005 149.733 69.4005L159.444 67.1691Z" fill="#010101"/>
<path d="M159.667 67.1687C156.095 65.9406 156.653 61.811 148.729 61.1414C147.166 61.0296 146.161 62.2571 145.045 63.0385C145.603 63.5969 146.161 64.4896 146.496 65.3823C145.492 64.2666 143.706 62.815 141.919 62.4801C140.245 62.1459 139.129 63.3733 137.343 64.2666C137.677 64.6008 138.013 65.1592 138.459 65.8294C136.896 64.825 135.78 64.4901 133.66 65.271C132.208 65.7171 129.418 66.9451 127.297 69.959C125.958 74.7588 149.844 69.4006 149.844 69.4006L159.667 67.1687Z" fill="#8AC640"/>
<path d="M180.651 68.9549C180.651 68.9549 180.651 67.7268 180.54 66.6111C180.54 66.3881 179.647 65.8297 179.647 65.6067L179.424 65.3831C179.424 65.3831 181.21 64.3786 182.549 64.937C183.999 65.3831 184.781 67.2808 184.781 67.2808C187.348 66.3881 187.571 67.3926 188.799 68.7318C191.478 68.1734 191.813 69.1779 193.487 71.6339C193.487 71.6339 191.478 71.2991 187.572 71.9682C183.776 72.5261 180.651 68.8431 180.651 68.9549Z" fill="#010101"/>
<path d="M180.205 68.3965C180.205 68.3965 180.874 67.8381 180.651 67.7263C181.878 67.0567 183.553 66.2758 184.334 68.3965C186.902 67.5033 187.236 68.7313 188.464 70.0712C191.589 68.6201 191.812 70.4054 192.036 71.1869C191.031 71.1869 189.581 71.2986 187.571 71.5217C183.776 72.0801 180.093 68.2847 180.205 68.3965Z" fill="#8AC640"/>
<path d="M142.255 65.606C142.255 65.606 148.617 67.8379 153.975 67.5031C159.332 67.057 168.485 66.6104 173.396 69.5125C173.396 69.5125 178.418 67.7261 183.106 68.9541C187.795 70.1816 196.389 78.2183 193.822 86.7011C193.599 87.2595 192.148 88.1522 190.474 88.7106C190.474 88.7106 191.367 92.5054 189.804 95.6305C188.241 98.6444 184.781 104.449 184.669 112.485C184.558 113.824 184.335 116.614 184.111 117.954C175.405 117.619 162.011 114.382 148.84 114.606C148.952 113.155 149.063 112.262 149.175 110.811H149.51C148.84 107.127 148.617 105.23 147.947 102.439C143.705 99.7607 139.24 96.6355 135.446 90.7195C131.763 84.8035 142.255 65.606 142.255 65.606ZM185.339 125.879C185.339 125.879 192.259 150.658 184.111 161.039C184.111 161.039 185.339 165.838 182.549 170.973C182.102 173.205 181.544 175.214 181.209 177.446C179.758 186.71 177.302 190.617 176.633 205.462L169.935 205.351C169.935 205.351 169.154 194.635 166.81 188.943C165.471 185.706 160.224 181.353 160.448 177C160.671 173.651 161.341 170.861 167.034 166.396C167.48 159.923 161.006 153.783 162.011 129.674L185.339 125.879Z" fill="#010101"/>
<path d="M183.33 124.874C185.116 136.259 189.246 153.113 181.767 161.373C182.209 163.467 182.246 165.626 181.879 167.735C181.656 169.074 181.209 170.525 180.651 172.087C179.535 174.766 179.088 178.673 178.753 181.017C177.302 190.281 177.302 190.728 176.633 205.573L169.935 205.461C169.935 205.461 169.154 194.746 166.81 189.054C165.471 185.817 162.681 183.027 162.458 178.674C162.235 175.325 164.578 168.629 170.159 168.852C169.825 155.346 163.574 158.024 161.9 129.897L183.33 124.874ZM142.255 65.606C142.255 65.606 144.711 66.3874 147.389 66.6104C150.068 66.8334 152.97 66.6104 155.537 66.4986C160.895 66.0526 168.485 65.4942 173.508 68.3963C173.508 68.3963 176.298 67.5031 179.312 67.7261C180.651 67.8379 181.991 68.9541 183.553 69.4007C188.464 70.6282 193.152 78.7762 191.031 86.1433C190.808 86.7017 189.245 86.1433 187.459 86.7017C187.794 88.2645 188.018 91.8363 186.231 95.6311C184.334 99.4264 181.879 104.337 182.325 113.713C170.605 113.155 165.359 112.374 153.751 111.816C152.746 107.686 152.076 103.556 151.965 101.435C153.528 100.654 154.42 99.9848 155.648 98.645C152.3 99.2034 150.96 98.9798 148.951 97.8636C146.942 96.7473 143.37 93.1756 141.584 90.8318C141.361 90.6083 140.134 94.2913 137.343 94.4036C136.338 92.9525 140.58 88.8224 139.798 87.2601C137.009 81.5671 142.255 65.606 142.255 65.606Z" fill="#F0EFEF"/>
<path d="M184.222 115.61C184.222 115.61 184.445 119.628 184.445 120.633C184.445 121.749 185.338 125.097 185.45 126.66C184.222 128.781 178.865 133.581 169.154 135.366C159.555 137.375 146.831 122.308 146.831 122.308C147.165 120.856 148.282 116.614 149.063 114.383C149.175 114.16 149.398 113.601 149.398 113.378C150.403 111.927 184.222 115.61 184.222 115.61Z" fill="#010101"/>
<path d="M181.767 115.946C181.767 118.736 182.213 120.745 182.549 122.531C183.107 125.768 183.999 127.889 183.999 130.01C183.999 136.483 175.517 135.367 168.372 135.59C158.773 137.6 150.625 122.531 150.625 122.531C151.295 119.964 151.742 117.062 152.746 114.606C152.857 113.267 153.081 111.593 153.192 110.812C166.81 110.812 176.409 111.593 181.99 112.15C182.213 113.378 181.99 115.499 181.767 115.946Z" fill="#F0EFEF"/>
<path d="M171.052 130.344C171.052 130.344 165.136 117.173 147.389 121.08C143.148 133.023 137.455 146.752 141.138 161.597C137.455 166.62 133.213 169.41 133.213 178.674C133.213 187.938 133.66 189.501 133.66 189.501L146.719 190.171C146.719 190.171 150.96 184.702 152.634 178.786C153.081 177.112 153.528 174.098 153.193 170.638C153.639 169.969 155.537 168.406 155.76 165.393C155.76 165.393 162.122 162.044 165.806 153.896C169.266 146.528 168.373 140.166 171.052 130.344Z" fill="#010101"/>
<path d="M171.052 130.344C170.718 129.116 166.253 117.062 149.733 120.633C140.023 146.528 143.595 157.244 145.045 161.931C138.459 170.302 135.446 172.088 136.786 189.054H145.492C149.51 182.692 150.403 180.348 150.626 171.977C150.626 171.642 149.399 172.646 148.506 173.763C149.176 170.303 151.073 169.633 152.524 167.512C153.194 166.619 153.751 165.28 153.751 163.494C161.565 158.248 164.467 151.662 166.141 144.854C167.481 140.166 169.043 132.464 171.052 130.344Z" fill="#F0EFEF"/>
<path d="M143.483 112.374C143.483 112.374 146.497 112.485 149.176 113.378C151.743 114.271 151.743 114.829 152.747 115.945C153.752 117.062 156.207 118.736 155.761 120.41C155.538 121.303 154.98 121.526 154.198 122.307C153.864 122.642 151.408 125.321 150.85 125.656C150.515 125.879 150.068 126.214 149.733 126.437L148.059 127.553C146.943 128.112 146.162 128.446 144.934 128.335C144.934 128.335 142.144 128.223 140.357 126.326C140.357 126.326 140.134 125.433 140.581 124.986C140.581 124.986 138.237 122.977 137.567 121.638C136.897 120.299 136.897 118.401 137.344 117.397C137.567 116.391 141.92 113.601 143.483 112.374ZM146.274 220.977L145.939 223.768C145.939 223.768 144.934 224.995 137.456 224.884C129.866 224.772 127.857 222.428 127.187 221.2L126.741 218.298C126.741 218.298 128.192 216.178 128.527 216.178C130.983 216.401 139.354 219.749 145.158 220.642C145.715 220.642 145.826 220.865 146.274 220.977ZM162.458 215.284C162.458 216.512 162.346 216.512 162.346 217.74C163.685 218.744 167.034 219.303 173.396 219.19C182.66 218.967 191.255 221.981 201.746 220.195L201.858 218.186L200.854 218.075L163.685 215.061L162.458 215.284Z" fill="#010101"/>
<path d="M170.606 219.191H173.396C179.424 218.968 185.116 220.307 191.255 220.642C194.492 220.53 198.51 219.749 198.175 217.405L166.476 214.726C164.578 216.847 166.029 218.633 170.606 219.191ZM134.218 172.2C135.223 172.87 142.032 176.888 153.082 176.33C152.858 178.451 152.97 182.581 148.059 189.835C145.603 193.407 143.482 199.658 143.036 207.583C143.148 209.369 144.152 210.931 142.813 213.275C143.259 214.726 145.045 217.628 145.938 219.414C146.831 221.2 147.277 223.209 141.361 223.321C135.334 223.432 125.623 222.763 126.963 218.075C127.633 215.62 129.53 213.052 129.754 212.047C129.977 211.043 129.977 208.03 131.874 206.02C133.549 200.44 132.99 195.082 132.656 190.059C132.098 184.813 131.986 176.442 134.218 172.2ZM144.599 81.2323C152.524 70.6283 145.826 62.146 133.103 64.7128C127.968 65.7172 122.834 69.2895 122.499 75.7629C120.825 75.9859 117.03 76.2089 115.132 83.1294C113.682 88.487 112.9 89.4915 110.332 92.17C108.658 94.0677 110.444 97.9743 111.672 100.765C115.802 110.364 128.526 111.257 137.121 118.512C140.023 117.731 143.036 114.494 143.929 112.374C136.674 103.779 138.236 100.43 135.334 95.9659C138.46 94.8491 145.603 90.4965 144.599 81.2323Z" fill="#010101"/>
<path d="M143.036 80.5626C143.482 79.8925 144.263 78.4419 144.599 77.8835C144.71 77.7718 145.938 79.8925 146.05 79.7812C149.063 74.8696 149.845 67.7261 146.384 67.0565C145.603 66.9447 144.152 66.6104 142.924 66.1633C140.692 65.3818 138.683 65.3819 135.111 66.052C130.2 66.9447 125.289 70.5165 125.289 75.6511C125.289 75.9859 128.748 76.9903 129.753 81.1205C128.079 78.7762 125.176 76.2089 121.717 78.4414C118.033 80.7851 119.931 86.1428 115.02 91.7234C113.345 93.6211 113.569 95.8536 115.354 100.318C118.256 107.35 131.985 111.145 139.464 117.842C141.249 117.061 142.477 115.275 143.37 113.935C138.347 108.69 136.338 103.778 134.887 100.206C133.101 96.0766 131.092 93.7329 127.185 90.6066C129.195 91.3881 130.758 92.1695 131.65 92.8391C132.654 93.5087 134.105 93.6205 135.445 93.1739C140.245 91.5009 142.813 84.8035 143.036 80.5626Z" fill="#F0EFEF"/>
<path d="M191.589 82.3488C191.255 86.5902 188.129 84.4695 186.455 83.688C183.107 82.237 179.758 81.2325 175.851 81.2325C171.945 81.2325 166.922 81.5673 162.569 82.6836C156.542 84.3577 154.756 84.2464 152.077 82.9066C149.399 81.4555 144.711 77.8838 144.711 77.8838C144.711 77.8838 144.599 79 145.716 80.4511C147.166 82.237 150.404 84.4695 154.756 85.92C156.877 86.5902 158.552 86.143 160.449 85.6969C170.383 83.2414 180.875 82.7948 189.692 88.1525C190.139 88.3755 191.702 87.7058 192.371 86.7014C193.264 85.2509 191.589 82.3488 191.589 82.3488Z" fill="#010101"/>
<path d="M140.804 124.875C141.697 125.433 142.813 125.768 144.041 126.772C144.041 126.772 143.036 126.772 142.59 126.326C142.032 125.991 140.915 124.987 140.804 124.875Z" fill="#0A1825"/>
<path d="M173.061 36.3622C172.726 35.3577 170.27 33.5713 164.578 33.5713C158.439 33.5713 156.654 35.469 156.542 36.4734C156.542 36.8082 156.096 40.3805 155.984 41.831C155.984 41.831 155.984 43.6169 156.095 46.2955C156.207 48.0813 156.654 49.0858 156.877 51.4301C157.1 53.885 157.77 55.4479 158.997 57.4573C159.556 57.7916 160.002 58.127 160.56 58.2388C162.793 58.6848 166.699 58.7966 168.82 58.2388C170.047 57.9039 171.61 55.7833 171.945 53.8856C172.391 51.5419 172.838 49.8672 172.949 48.4167C173.172 46.9662 173.284 43.7287 173.396 42.8355C173.731 40.3805 173.172 36.5852 173.061 36.3622Z" fill="#F0EFEF"/>
<path d="M161.341 174.321C161.341 174.321 167.257 176.889 181.879 174.656C181.879 174.656 177.75 195.417 179.647 205.797C179.647 205.797 181.544 208.476 195.608 213.61C195.608 213.61 201.859 215.173 201.636 218.299C201.636 218.299 201.859 218.968 194.269 218.745C186.68 218.521 179.536 217.182 174.513 217.182C169.49 217.182 164.132 217.405 163.24 215.954C162.235 214.615 163.463 211.155 164.914 209.145C166.477 207.025 166.03 205.462 165.919 201.667C165.583 191.733 157.993 181.465 161.341 174.321Z" fill="#010101"/>
<path d="M160.113 176.219C159.332 177.335 160.225 181.576 161.341 185.706C162.457 189.835 164.913 192.291 165.471 199.1C166.029 205.797 166.141 206.69 164.243 210.596C162.345 214.502 161.788 218.074 168.373 218.186C174.958 218.298 178.53 218.074 185.227 219.079C191.924 220.084 194.268 220.418 197.952 219.861C201.635 219.303 202.416 218.074 200.854 216.958C199.291 215.842 192.817 214.615 190.027 212.382C187.348 210.373 179.758 207.024 179.647 206.131C179.312 203.117 179.2 192.179 179.758 188.607C180.316 185.035 181.097 179.901 181.321 178.562C181.545 177.222 182.66 175.883 180.763 176.329C178.865 176.775 171.722 177.78 166.364 177.446C161.007 177.111 160.449 175.883 160.113 176.219Z" fill="#8AC640"/>
<path opacity="0.3" d="M163.908 210.708C165.805 211.601 168.596 212.271 170.717 212.271C170.717 212.271 169.935 215.954 171.163 218.186C172.391 220.419 162.234 219.08 162.234 219.08L161.788 211.155L163.908 210.708ZM193.487 220.307C195.273 219.749 196.501 217.74 195.05 215.843C193.487 213.945 192.148 213.61 194.157 213.499C196.166 213.387 203.532 217.852 203.532 217.852L199.737 221.312L193.487 220.307ZM159.778 180.571C162.346 181.464 166.252 181.687 169.601 181.576C172.949 181.464 177.972 181.017 181.209 179.901C184.446 178.785 183.106 181.129 183.106 181.129L181.321 182.804C181.321 182.804 177.079 184.478 170.159 184.366C162.011 184.255 159.555 183.362 159.555 183.362L159.778 180.571ZM160.001 186.152C162.569 187.046 166.475 187.269 169.824 187.157C173.172 187.046 177.637 187.046 180.874 185.818C182.213 185.371 181.432 187.269 181.432 187.269L180.874 188.273C180.874 188.273 176.521 189.836 169.712 189.724C161.564 189.612 160.113 188.942 160.113 188.942L160.001 186.152Z" fill="#010101"/>
<path d="M152.635 107.909C152.635 108.691 161.341 113.043 166.14 113.936C170.94 114.829 180.986 113.936 182.548 113.602L182.325 115.164C182.325 115.164 170.382 116.95 161.229 114.495C152.076 112.039 153.081 111.481 153.081 111.481L152.635 107.909Z" fill="#010101"/>
<path d="M133.995 203.118C135.334 203.788 140.134 205.016 143.259 204.346C143.705 204.234 143.259 196.644 144.487 193.184C146.273 188.384 149.175 184.478 150.514 175.996C145.826 175.549 140.468 174.321 137.678 173.428C134.106 184.367 135.334 193.742 133.995 203.118ZM141.473 210.15C142.255 210.373 142.813 211.266 143.036 210.709C143.482 209.704 142.255 207.807 142.143 206.467V206.356C141.139 205.463 134.33 205.351 134.777 205.797C133.995 207.248 132.768 207.025 132.322 209.927C132.099 211.378 133.884 210.15 135.558 210.039C132.545 212.047 129.085 214.615 128.526 216.847C127.857 219.972 128.973 220.866 132.322 222.54C135.224 223.21 138.684 223.322 141.362 223.21C144.376 222.651 144.935 221.201 144.041 219.191C142.701 216.178 141.808 212.271 141.473 210.15Z" fill="#F0EFEF"/>
<path d="M142.701 65.1597C146.385 67.2804 151.519 66.7225 153.416 66.6107C153.863 66.6107 158.328 65.8293 158.551 65.9405C158.997 66.0523 158.997 66.3872 158.997 66.3872C158.997 66.3872 157.323 67.2798 153.528 67.5028C149.956 67.7259 145.715 67.5028 143.371 66.3872C140.58 65.1597 142.701 65.1597 142.701 65.1597ZM180.651 67.2804C181.321 67.7264 185.674 69.4011 187.572 71.41C189.246 73.1964 188.353 73.0846 188.018 72.638C187.572 72.0796 184.111 69.7359 182.772 69.178C181.433 68.6202 179.758 67.6152 179.758 67.3922C179.758 67.1691 180.651 67.2804 180.651 67.2804Z" fill="#010101"/>
<path d="M142.143 113.601C145.38 113.378 148.729 114.159 150.849 116.391C151.965 117.508 153.751 118.735 153.528 119.851C153.528 120.186 152.858 121.079 152.301 121.749C151.966 122.195 150.962 123.199 150.626 123.535C150.18 123.87 148.617 125.098 148.282 125.321C147.948 125.544 147.501 126.103 147.166 126.214C146.051 126.772 144.822 126.326 143.706 125.768C142.591 125.209 143.93 125.098 142.702 124.205C139.688 122.084 138.014 120.633 139.242 116.503C139.353 115.722 140.581 114.828 142.143 113.601Z" fill="#F0EFEF"/>
<path opacity="0.4" d="M113.681 88.0409C103.635 92.0593 78.0746 104.784 70.8198 108.691C76.8471 112.485 79.6374 121.638 80.5306 130.902C80.6419 131.795 80.7537 132.577 80.8655 133.469C80.9767 134.251 81.0885 134.809 81.1997 135.144C81.1997 135.256 81.1997 135.479 81.3115 135.59C87.8972 117.62 111.448 98.645 112.341 97.1939C112.787 96.5243 111.783 93.6222 113.346 90.8324C115.355 87.2595 119.262 85.6967 113.681 88.0409ZM137.567 172.312C142.701 162.043 142.813 152.221 142.701 140.724C142.701 135.924 146.161 129.116 144.376 131.013C137.678 138.491 120.824 152.556 108.658 153.336C125.735 152.779 132.432 161.373 137.567 172.312Z" fill="#010101"/>
<path d="M60.9971 118.177C67.3592 113.601 100.286 96.0778 108.211 93.6217C116.136 91.0544 113.68 88.0405 113.68 88.0405C113.68 88.0405 81.5344 101.881 62.3363 113.824" fill="#010101"/>
<path opacity="0.4" d="M154.755 85.9205C152.188 84.9161 150.179 87.93 150.849 90.8321C151.519 93.7342 157.546 96.9706 157.211 107.575C156.988 116.281 155.09 119.852 155.09 119.852L150.849 114.495C150.849 114.495 150.179 102.44 148.728 100.654C147.278 98.8683 142.701 95.6313 140.915 93.9572C139.129 92.2826 142.924 90.0507 142.701 86.925C142.478 83.9116 144.599 77.8843 144.599 77.8843L154.755 85.9205ZM170.27 133.469C170.047 141.84 171.945 154.23 172.726 160.146C173.507 166.061 174.512 166.508 172.726 169.187C170.94 171.754 168.596 175.996 168.596 175.996L160.894 175.326C160.894 175.326 167.034 167.513 167.368 166.061C167.703 164.611 164.243 153.561 164.243 153.561L170.27 133.469ZM155.426 55.3375C156.988 58.797 158.886 60.3598 161.899 61.3648C163.685 62.0345 170.717 62.9277 173.507 59.802C174.735 58.3509 173.953 54.4443 173.953 54.4443L167.591 59.5784L158.997 58.0161L157.992 55.4488L155.426 55.3375Z" fill="#010101"/>
<path d="M156.095 63.0386C158.997 64.9362 166.252 66.7221 168.261 67.0569C170.27 67.503 173.507 64.9362 175.07 64.2666C176.744 63.4852 179.647 63.0386 182.995 66.0525C183.33 66.3873 182.213 67.8384 182.213 67.8384C182.102 67.7266 181.432 67.7266 180.539 67.28C179.646 66.8339 178.865 66.4985 177.525 66.6103C171.944 67.28 171.051 69.1776 166.14 68.0608C161.229 66.9441 160.001 66.0519 155.202 66.275" fill="#8AC640"/>
<path d="M156.095 63.0386C158.997 64.9362 166.252 66.7221 168.261 67.0569C170.27 67.503 173.507 64.9362 175.07 64.2666C176.744 63.4852 179.647 63.0386 182.995 66.0525C183.33 66.3873 182.213 67.8384 182.213 67.8384C182.102 67.7266 181.432 67.7266 180.539 67.28C179.646 66.8339 178.865 66.4985 177.525 66.6103C171.944 67.28 171.051 69.1776 166.14 68.0608C161.229 66.9441 160.001 66.0519 155.202 66.275" stroke="#010101" stroke-width="10.8638" stroke-miterlimit="10" stroke-linejoin="round"/>
<path d="M155.091 63.3735C158.774 64.9364 165.918 66.6105 167.927 67.0571C169.935 67.5037 173.172 65.4942 174.735 64.4898C177.526 62.7039 181.097 64.155 182.772 66.0526C183.888 67.2801 184.335 68.0615 184.335 68.3964C184.335 68.8424 182.996 68.3964 182.996 68.3964C182.214 68.0615 181.321 67.9503 180.652 67.5031C179.759 67.0571 178.865 66.3874 177.527 66.4987C171.945 67.1689 170.829 69.066 166.03 67.9497C161.231 66.8335 160.003 65.829 154.869 66.1633" fill="#8AC640"/>
<path d="M137.79 167.624C137.567 167.401 138.013 167.178 137.79 167.178C136.339 167.178 134.33 166.061 133.213 164.498C128.414 157.579 121.382 153.002 108.657 153.337C89.5706 153.783 81.9805 145.971 80.53 131.014C79.7485 122.866 77.516 114.941 72.9398 110.476L70.2607 112.151C75.3948 116.615 77.0694 123.87 78.1857 133.804C79.9716 148.761 92.0261 155.681 106.09 155.904C120.712 156.127 125.958 159.141 131.427 166.508C133.213 168.852 135.222 169.634 136.784 169.968L137.79 167.624Z" fill="#010101"/>
<path opacity="0.4" d="M189.581 95.854C189.915 97.5281 190.808 100.765 192.594 102.327C193.376 103.109 193.487 103.332 192.817 103.332C192.147 103.332 187.236 103.109 187.236 103.109L185.897 100.765L189.581 95.854Z" fill="#010101"/>
</svg>
