<svg width="256" height="256" viewBox="0 0 256 256" fill="none" xmlns="http://www.w3.org/2000/svg">
<path d="M196 0H60C26.8629 0 0 26.8629 0 60V196C0 229.137 26.8629 256 60 256H196C229.137 256 256 229.137 256 196V60C256 26.8629 229.137 0 196 0Z" fill="white"/>
<path fill-rule="evenodd" clip-rule="evenodd" d="M99.663 32.2298C68.3942 34.6467 41.8081 36.7615 40.5996 36.9126C37.1253 37.6679 33.9531 39.9337 32.4425 43.1059L31.083 45.8249L31.2341 111.384L31.3851 176.943L33.3489 181.021C34.5573 183.287 42.1102 193.861 50.4183 204.586C66.8836 226.036 68.092 227.094 74.2854 227.849C76.0981 228 89.8443 227.396 104.497 226.489C119.3 225.583 143.168 224.073 157.367 223.317C218.243 219.541 215.071 219.843 218.696 216.822C223.077 213.196 222.624 219.239 222.926 139.48C223.077 71.9579 222.926 67.4261 221.868 65.4624C220.811 63.0455 218.696 61.5349 190.902 42.0485C172.322 28.9065 170.962 28.3023 162.654 28.1512C159.18 28.0002 130.781 29.9639 99.663 32.2298Z" fill="white"/>
<path fill-rule="evenodd" clip-rule="evenodd" d="M99.663 32.2298C68.3942 34.6467 41.8081 36.7615 40.5996 36.9126C37.1253 37.6679 33.9531 39.9337 32.4425 43.1059L31.083 45.8249L31.2341 111.384L31.3851 176.943L33.3489 181.021C34.5573 183.287 42.1102 193.861 50.4183 204.586C66.8836 226.036 68.092 227.094 74.2854 227.849C76.0981 228 89.8443 227.396 104.497 226.489C119.3 225.583 143.168 224.073 157.367 223.317C218.243 219.541 215.071 219.843 218.696 216.822C223.077 213.196 222.624 219.239 222.926 139.48C223.077 71.9579 222.926 67.4261 221.868 65.4624C220.811 63.0455 218.696 61.5349 190.902 42.0485C172.322 28.9065 170.962 28.3023 162.654 28.1512C159.18 28.0002 130.781 29.9639 99.663 32.2298ZM169.905 40.8401C172.624 42.0485 191.808 55.3416 194.527 57.9095C195.282 58.6648 195.584 59.4201 195.131 59.7222C194.376 60.4775 75.4939 67.5772 72.0195 66.973C70.509 66.8219 68.2431 65.9156 66.8836 65.0092C61.4455 61.2328 48.0014 50.2056 48.0014 49.4503C48.0014 47.3355 47.5483 47.3355 100.418 43.408C110.539 42.8038 127.307 41.5953 137.427 40.689C159.331 39.0274 165.826 39.0274 169.905 40.8401ZM207.669 74.979C208.575 75.8854 209.331 77.547 209.633 79.2086C209.784 80.7192 209.935 108.816 209.784 141.444C209.633 197.335 209.482 200.961 208.424 202.471C207.82 203.529 206.612 204.586 205.554 204.888C202.986 205.946 78.515 213.045 75.947 212.29C74.7386 211.988 73.0769 210.931 72.3216 210.024L70.8111 208.514L70.66 148.091C70.509 105.644 70.66 86.9125 71.1132 85.2509C71.4153 84.0424 72.4727 82.5319 73.228 81.9276C74.2854 81.1724 81.6872 80.5681 107.065 79.0576C124.89 78.1512 152.533 76.4896 168.243 75.4322C206.007 73.1663 205.856 73.1663 207.669 74.979Z" fill="black"/>
<path fill-rule="evenodd" clip-rule="evenodd" d="M174.286 95.6737C167.488 96.1269 161.446 96.7311 160.842 97.1843C158.727 98.2417 157.518 100.054 157.216 102.018C157.065 103.982 157.669 104.284 164.467 105.19L167.337 105.492V132.23C167.337 148.091 167.186 158.514 166.733 158.211C166.431 157.909 157.669 144.314 147.095 128.302C136.521 111.988 127.76 98.6949 127.609 98.6949C127.458 98.5438 120.66 98.8459 112.352 99.4502C102.231 100.054 96.6421 100.81 95.5847 101.414C93.772 102.32 91.6572 105.644 91.6572 107.758C91.6572 109.118 94.0741 109.873 99.059 109.873H101.778V186.61L97.3974 187.97C94.2252 188.876 93.0167 189.48 92.4125 190.84C91.5062 192.955 91.5062 194.767 92.5636 194.767C92.8657 194.767 99.9654 194.465 108.122 193.861C124.135 192.955 125.947 192.501 127.609 189.178C128.213 188.272 128.666 187.214 128.666 186.761C128.666 186.61 126.4 185.855 123.832 185.251C121.113 184.646 118.394 183.891 117.79 183.891C116.733 183.589 116.733 181.625 116.733 154.737V125.885L135.766 155.643C155.706 186.912 158.122 190.538 161.295 192.048C165.071 194.012 174.739 192.652 179.573 189.48L181.083 188.574L181.234 145.976L181.385 103.227L184.709 102.622C188.636 101.867 190.449 100.054 190.449 96.8822C190.449 94.9185 190.298 94.7674 188.485 94.9185C187.428 94.9185 180.932 95.3716 174.286 95.6737Z" fill="black"/>
</svg>
