<svg width="256" height="256" viewBox="0 0 256 256" fill="none" xmlns="http://www.w3.org/2000/svg">
<path d="M196 0H60C26.8629 0 0 26.8629 0 60V196C0 229.137 26.8629 256 60 256H196C229.137 256 256 229.137 256 196V60C256 26.8629 229.137 0 196 0Z" fill="white"/>
<path d="M28 89V155.795H83.5984V166.992H128V155.795H228V89H28Z" fill="#CB3837"/>
<path d="M61.2051 100.197H39.1973V144.598H61.2051V111.394H72.402V144.598H83.5988V100.197H61.2051ZM94.7957 100.197V155.795H117.189V144.598H139.197V100.197H94.7957ZM128 133.401H117.189V111.394H128V133.401ZM172.402 100.197H150.394V144.598H172.402V111.394H183.599V144.598H194.796V111.394H205.993V144.598H217.189V100.197H172.402Z" fill="white"/>
</svg>
