<svg width="256" height="256" viewBox="0 0 256 256" fill="none" xmlns="http://www.w3.org/2000/svg">
<path d="M196 0H60C26.8629 0 0 26.8629 0 60V196C0 229.137 26.8629 256 60 256H196C229.137 256 256 229.137 256 196V60C256 26.8629 229.137 0 196 0Z" fill="white"/>
<g clip-path="url(#clip0_23_126)">
<path fill-rule="evenodd" clip-rule="evenodd" d="M102.523 33C92.0414 33.0077 83.5582 41.5142 83.566 51.9961C83.5582 62.4781 92.0492 70.9845 102.531 70.9923H121.496V52.0039C121.504 41.5219 113.013 33.0155 102.523 33C102.531 33 102.531 33 102.523 33ZM102.523 83.6667H51.9652C41.4832 83.6744 32.9923 92.1808 33 102.663C32.9845 113.145 41.4755 121.651 51.9574 121.667H102.523C113.005 121.659 121.496 113.152 121.489 102.671C121.496 92.1808 113.005 83.6744 102.523 83.6667Z" fill="#36C5F0"/>
<path fill-rule="evenodd" clip-rule="evenodd" d="M222.62 102.663C222.628 92.1808 214.137 83.6744 203.655 83.6667C193.173 83.6744 184.682 92.1808 184.69 102.663V121.667H203.655C214.137 121.659 222.628 113.152 222.62 102.663ZM172.054 102.663V51.9961C172.062 41.5219 163.579 33.0155 153.097 33C142.615 33.0077 134.124 41.5142 134.132 51.9961V102.663C134.116 113.145 142.607 121.651 153.089 121.667C163.571 121.659 172.062 113.152 172.054 102.663Z" fill="#2EB67D"/>
<path fill-rule="evenodd" clip-rule="evenodd" d="M153.089 223C163.571 222.992 172.062 214.486 172.054 204.004C172.062 193.522 163.571 185.016 153.089 185.008H134.124V204.004C134.116 214.478 142.607 222.985 153.089 223ZM153.089 172.326H203.655C214.137 172.318 222.628 163.812 222.62 153.33C222.636 142.848 214.145 134.341 203.663 134.326H153.097C142.615 134.333 134.124 142.84 134.132 153.322C134.124 163.812 142.607 172.318 153.089 172.326Z" fill="#ECB22E"/>
<path fill-rule="evenodd" clip-rule="evenodd" d="M33 153.33C32.9923 163.812 41.4832 172.318 51.9651 172.326C62.4471 172.318 70.938 163.812 70.9303 153.33V134.333H51.9651C41.4832 134.341 32.9923 142.848 33 153.33ZM83.566 153.33V203.996C83.5505 214.478 92.0414 222.985 102.523 223C113.005 222.992 121.496 214.486 121.488 204.004V153.345C121.504 142.863 113.013 134.357 102.531 134.341C92.0414 134.341 83.5582 142.848 83.566 153.33Z" fill="#E01E5A"/>
</g>
<defs>
<clipPath id="clip0_23_126">
<rect width="189.62" height="190" fill="white" transform="translate(33 33)"/>
</clipPath>
</defs>
</svg>
