<svg width="256" height="256" viewBox="0 0 256 256" fill="none" xmlns="http://www.w3.org/2000/svg">
<path d="M196 0H60C26.8629 0 0 26.8629 0 60V196C0 229.137 26.8629 256 60 256H196C229.137 256 256 229.137 256 196V60C256 26.8629 229.137 0 196 0Z" fill="#FF7116"/>
<g clip-path="url(#clip0_23_124)">
<path d="M101.627 104C108.574 103.97 115.699 105.963 121.099 110.455C123.866 112.694 126.101 115.504 127.999 118.496C131.414 112.975 136.403 108.284 142.555 106.023C150.051 103.209 158.525 103.403 166.008 106.162C172.545 108.548 178.26 112.707 183.444 117.281C187.499 120.861 191.252 124.777 195.428 128.223C197.628 130.009 199.993 131.682 202.699 132.607C206.296 133.835 210.55 132.676 213.123 129.905C215.505 127.311 215.358 122.828 212.733 120.459C211.065 119.019 208.211 119.309 207.031 121.228C205.998 122.75 206.577 124.648 207.386 126.122C205.237 124.553 203.084 122.365 203.092 119.512C202.647 116.213 205.094 113.304 208.025 112.149C213.745 109.862 220.917 111.834 224.527 116.87C227.999 121.57 228.275 127.747 227.67 133.346C226.94 138.664 223.965 143.627 219.555 146.705C213.365 151.123 205.518 152.494 198.052 152.399C190.875 152.204 183.772 150.583 177.123 147.902C166.004 143.432 155.598 137.254 144.115 133.683C140.307 132.205 136.256 131.405 132.183 131.158C128.941 131.137 125.867 130.986 122.806 131.193C119.071 131.552 115.357 132.317 111.86 133.687C100.183 137.319 89.6213 143.653 78.2903 148.132C68.7227 151.854 58.1223 153.583 47.9673 151.517C42.2865 150.367 36.6315 147.855 32.797 143.38C29.5156 139.576 27.9422 134.483 28.0971 129.494C27.9156 124.786 28.9488 119.784 32.0616 116.118C34.9578 112.642 39.623 110.879 44.1019 111.268C46.9852 111.402 49.908 112.66 51.689 114.981C53.0899 116.818 53.1761 119.335 52.5622 121.483C51.8143 123.416 50.271 124.925 48.5938 126.083C49.4497 124.639 49.9685 122.733 48.9568 121.224C47.7116 119.213 44.6464 119.01 43.0254 120.662C41.0281 122.715 40.6085 126.07 41.9489 128.586C43.4013 131.224 46.4064 132.728 49.3155 133.035C53.7167 133.415 57.5341 130.687 60.7636 128.042C67.4471 122.287 73.4647 115.703 80.8793 110.835C86.9925 106.737 94.1948 103.965 101.626 104L101.627 104Z" fill="#423426"/>
</g>
<defs>
<clipPath id="clip0_23_124">
<rect width="200" height="48.4" fill="white" transform="translate(28 104)"/>
</clipPath>
</defs>
</svg>
