<svg width="256" height="256" viewBox="0 0 256 256" fill="none" xmlns="http://www.w3.org/2000/svg">
<path d="M196 0H60C26.8629 0 0 26.8629 0 60V196C0 229.137 26.8629 256 60 256H196C229.137 256 256 229.137 256 196V60C256 26.8629 229.137 0 196 0Z" fill="#F4F2ED"/>
<g clip-path="url(#clip0_23_132)">
<path d="M165.586 128.005C166.441 129.737 167.288 131.473 168.152 133.201C179.69 156.278 191.231 179.355 202.77 202.432C202.85 202.591 202.922 202.753 203.023 202.968C202.827 202.981 202.671 202.999 202.516 202.999C187.801 203 173.086 202.999 158.371 203.01C158.029 203.011 157.89 202.888 157.75 202.609C152.874 192.849 147.986 183.095 143.108 173.335C138.156 163.426 133.212 153.513 128.263 143.602C128.193 143.461 128.109 143.328 127.995 143.127C127.871 143.358 127.777 143.524 127.692 143.694C126.328 146.414 124.964 149.135 123.603 151.856C122.139 154.781 120.682 157.71 119.215 160.633C117.923 163.206 116.608 165.768 115.323 168.345C109.632 179.756 103.946 191.171 98.2664 202.588C98.1173 202.888 97.9585 203.01 97.6056 203.009C82.9072 202.999 68.2089 203 53.5105 203H52.9585C53.5651 201.774 54.1317 200.616 54.708 199.464C66.5848 175.713 78.4627 151.962 90.3402 128.211C90.362 128.167 90.3805 128.122 90.4364 128.024C90.5798 127.784 90.6973 127.602 90.7934 127.41C98.0634 112.873 105.331 98.3358 112.603 83.8004C112.712 83.5829 112.871 83.3902 113.006 83.186C113.137 83.3706 113.296 83.5417 113.396 83.7419C118.164 93.2607 122.927 102.782 127.69 112.304C127.782 112.488 127.867 112.677 127.984 112.925C128.108 112.683 128.214 112.483 128.315 112.282C133.108 102.706 137.9 93.1305 142.695 83.556C142.757 83.4308 142.847 83.319 142.99 83.2074C143.173 83.4138 143.302 83.6081 143.405 83.8148C150.669 98.3363 157.93 112.859 165.195 127.38C165.304 127.599 165.455 127.797 165.586 128.005Z" fill="#4FC08D"/>
<path d="M165.594 127.969C165.455 127.797 165.304 127.599 165.195 127.38C157.93 112.859 150.669 98.3363 143.405 83.8149C143.302 83.6081 143.173 83.4139 143.025 83.1975C143.047 82.9859 143.069 82.775 143.157 82.5973C148.001 72.8976 152.853 63.2019 157.689 53.4986C157.882 53.1123 158.098 52.99 158.521 52.9906C168.651 53.0029 178.781 53.0001 188.912 53.0001H203.021C202.901 53.2642 202.827 53.4426 202.741 53.6151C190.446 78.2076 178.15 102.8 165.856 127.392C165.766 127.57 165.686 127.753 165.594 127.969ZM113.005 83.1476C112.871 83.3902 112.712 83.5829 112.604 83.8004C105.331 98.3358 98.0636 112.873 90.7936 127.41C90.6974 127.602 90.5799 127.784 90.4434 127.988C89.5641 126.278 88.7228 124.546 87.8621 122.824C76.3395 99.7724 64.8141 76.7219 53.29 53.6709C53.1955 53.482 53.1078 53.2899 52.9839 53.0299C53.2294 53.0177 53.4042 53.0012 53.5789 53.0012C68.2262 53.0001 82.8734 53.0021 97.5207 52.9902C97.9353 52.9899 98.1287 53.1364 98.3059 53.4918C103.116 63.1354 107.938 72.7732 112.754 82.4142C112.863 82.633 112.922 82.877 113.005 83.1476Z" fill="#35495E"/>
</g>
<defs>
<clipPath id="clip0_23_132">
<rect width="200" height="200" fill="white" transform="translate(28 28)"/>
</clipPath>
</defs>
</svg>
